<mxfile host="app.diagrams.net" modified="2021-10-04T12:35:08.796Z" agent="5.0 (Windows NT 10.0; Win64; x64) AppleWebKit/537.36 (KHTML, like Gecko) Chrome/92.0.4515.159 YaBrowser/21.8.3.614 Yowser/2.5 Safari/537.36" etag="PCyd5CNiQsDs4VdWpcgd" version="15.4.1" type="github">
  <diagram id="noWht0LOCss9FzBZr9lw" name="Page-1">
    <mxGraphModel dx="1185" dy="1807" grid="1" gridSize="10" guides="1" tooltips="1" connect="1" arrows="1" fold="1" page="1" pageScale="1" pageWidth="827" pageHeight="1169" math="0" shadow="0">
      <root>
        <mxCell id="0" />
        <mxCell id="1" parent="0" />
        <mxCell id="BN2WUZa2xBLd-5vFpixv-15" value="&lt;p style=&quot;margin: 0px ; margin-top: 4px ; text-align: center&quot;&gt;&lt;i&gt;&amp;lt;&amp;lt;&lt;/i&gt;&lt;b&gt;I&lt;/b&gt;&lt;span style=&quot;font-weight: 700&quot;&gt;Employee&lt;/span&gt;&lt;i&gt;&amp;gt;&amp;gt;&lt;/i&gt;&lt;br&gt;&lt;b&gt;Interface&lt;/b&gt;&lt;/p&gt;&lt;hr size=&quot;1&quot;&gt;&lt;p style=&quot;margin: 0px ; margin-left: 4px&quot;&gt;+ Name: String&lt;br&gt;+ Surname: String&lt;br&gt;&lt;/p&gt;&lt;p style=&quot;margin: 0px ; margin-left: 4px&quot;&gt;+ Age: Int&lt;br&gt;&lt;/p&gt;&lt;p style=&quot;margin: 0px ; margin-left: 4px&quot;&gt;+Post: String&lt;/p&gt;&lt;p style=&quot;margin: 0px ; margin-left: 4px&quot;&gt;+Salary: Int&lt;/p&gt;&lt;hr size=&quot;1&quot;&gt;&lt;p style=&quot;margin: 0px ; margin-left: 4px&quot;&gt;+ Work(Type): Type&lt;br&gt;&lt;br&gt;&lt;/p&gt;" style="verticalAlign=top;align=left;overflow=fill;fontSize=12;fontFamily=Helvetica;html=1;" vertex="1" parent="1">
          <mxGeometry x="515" y="-1010" width="190" height="160" as="geometry" />
        </mxCell>
        <mxCell id="BN2WUZa2xBLd-5vFpixv-20" value="Accountant" style="swimlane;fontStyle=1;align=center;verticalAlign=top;childLayout=stackLayout;horizontal=1;startSize=26;horizontalStack=0;resizeParent=1;resizeParentMax=0;resizeLast=0;collapsible=1;marginBottom=0;" vertex="1" parent="1">
          <mxGeometry x="290" y="-1010" width="160" height="168" as="geometry" />
        </mxCell>
        <mxCell id="BN2WUZa2xBLd-5vFpixv-21" value="+ Name: String&#xa;+ Surname: String&#xa;+ Age: Int&#xa;+Post: String&#xa;+Salary: Int&#xa;" style="text;strokeColor=none;fillColor=none;align=left;verticalAlign=top;spacingLeft=4;spacingRight=4;overflow=hidden;rotatable=0;points=[[0,0.5],[1,0.5]];portConstraint=eastwest;" vertex="1" parent="BN2WUZa2xBLd-5vFpixv-20">
          <mxGeometry y="26" width="160" height="84" as="geometry" />
        </mxCell>
        <mxCell id="BN2WUZa2xBLd-5vFpixv-22" value="" style="line;strokeWidth=1;fillColor=none;align=left;verticalAlign=middle;spacingTop=-1;spacingLeft=3;spacingRight=3;rotatable=0;labelPosition=right;points=[];portConstraint=eastwest;" vertex="1" parent="BN2WUZa2xBLd-5vFpixv-20">
          <mxGeometry y="110" width="160" height="18" as="geometry" />
        </mxCell>
        <mxCell id="BN2WUZa2xBLd-5vFpixv-23" value="Work(Type): Type" style="text;strokeColor=none;fillColor=none;align=left;verticalAlign=top;spacingLeft=4;spacingRight=4;overflow=hidden;rotatable=0;points=[[0,0.5],[1,0.5]];portConstraint=eastwest;" vertex="1" parent="BN2WUZa2xBLd-5vFpixv-20">
          <mxGeometry y="128" width="160" height="40" as="geometry" />
        </mxCell>
        <mxCell id="BN2WUZa2xBLd-5vFpixv-24" value="Manager" style="swimlane;fontStyle=1;align=center;verticalAlign=top;childLayout=stackLayout;horizontal=1;startSize=26;horizontalStack=0;resizeParent=1;resizeParentMax=0;resizeLast=0;collapsible=1;marginBottom=0;" vertex="1" parent="1">
          <mxGeometry x="175" y="-790" width="160" height="168" as="geometry" />
        </mxCell>
        <mxCell id="BN2WUZa2xBLd-5vFpixv-25" value="+ Name: String&#xa;+ Surname: String&#xa;+ Age: Int&#xa;+Post: String&#xa;+Salary: Int&#xa;" style="text;strokeColor=none;fillColor=none;align=left;verticalAlign=top;spacingLeft=4;spacingRight=4;overflow=hidden;rotatable=0;points=[[0,0.5],[1,0.5]];portConstraint=eastwest;" vertex="1" parent="BN2WUZa2xBLd-5vFpixv-24">
          <mxGeometry y="26" width="160" height="84" as="geometry" />
        </mxCell>
        <mxCell id="BN2WUZa2xBLd-5vFpixv-26" value="" style="line;strokeWidth=1;fillColor=none;align=left;verticalAlign=middle;spacingTop=-1;spacingLeft=3;spacingRight=3;rotatable=0;labelPosition=right;points=[];portConstraint=eastwest;" vertex="1" parent="BN2WUZa2xBLd-5vFpixv-24">
          <mxGeometry y="110" width="160" height="18" as="geometry" />
        </mxCell>
        <mxCell id="BN2WUZa2xBLd-5vFpixv-27" value="Work(Type): Type" style="text;strokeColor=none;fillColor=none;align=left;verticalAlign=top;spacingLeft=4;spacingRight=4;overflow=hidden;rotatable=0;points=[[0,0.5],[1,0.5]];portConstraint=eastwest;" vertex="1" parent="BN2WUZa2xBLd-5vFpixv-24">
          <mxGeometry y="128" width="160" height="40" as="geometry" />
        </mxCell>
        <mxCell id="BN2WUZa2xBLd-5vFpixv-28" value="Development" style="swimlane;fontStyle=1;align=center;verticalAlign=top;childLayout=stackLayout;horizontal=1;startSize=26;horizontalStack=0;resizeParent=1;resizeParentMax=0;resizeLast=0;collapsible=1;marginBottom=0;" vertex="1" parent="1">
          <mxGeometry x="355" y="-790" width="160" height="168" as="geometry" />
        </mxCell>
        <mxCell id="BN2WUZa2xBLd-5vFpixv-29" value="+ Name: String&#xa;+ Surname: String&#xa;+ Age: Int&#xa;+Post: String&#xa;+Salary: Int&#xa;" style="text;strokeColor=none;fillColor=none;align=left;verticalAlign=top;spacingLeft=4;spacingRight=4;overflow=hidden;rotatable=0;points=[[0,0.5],[1,0.5]];portConstraint=eastwest;" vertex="1" parent="BN2WUZa2xBLd-5vFpixv-28">
          <mxGeometry y="26" width="160" height="84" as="geometry" />
        </mxCell>
        <mxCell id="BN2WUZa2xBLd-5vFpixv-30" value="" style="line;strokeWidth=1;fillColor=none;align=left;verticalAlign=middle;spacingTop=-1;spacingLeft=3;spacingRight=3;rotatable=0;labelPosition=right;points=[];portConstraint=eastwest;" vertex="1" parent="BN2WUZa2xBLd-5vFpixv-28">
          <mxGeometry y="110" width="160" height="18" as="geometry" />
        </mxCell>
        <mxCell id="BN2WUZa2xBLd-5vFpixv-31" value="Work(Type): Type" style="text;strokeColor=none;fillColor=none;align=left;verticalAlign=top;spacingLeft=4;spacingRight=4;overflow=hidden;rotatable=0;points=[[0,0.5],[1,0.5]];portConstraint=eastwest;" vertex="1" parent="BN2WUZa2xBLd-5vFpixv-28">
          <mxGeometry y="128" width="160" height="40" as="geometry" />
        </mxCell>
        <mxCell id="BN2WUZa2xBLd-5vFpixv-32" value="Lawyer" style="swimlane;fontStyle=1;align=center;verticalAlign=top;childLayout=stackLayout;horizontal=1;startSize=26;horizontalStack=0;resizeParent=1;resizeParentMax=0;resizeLast=0;collapsible=1;marginBottom=0;" vertex="1" parent="1">
          <mxGeometry x="545" y="-790" width="160" height="168" as="geometry" />
        </mxCell>
        <mxCell id="BN2WUZa2xBLd-5vFpixv-33" value="+ Name: String&#xa;+ Surname: String&#xa;+ Age: Int&#xa;+Post: String&#xa;+Salary: Int&#xa;" style="text;strokeColor=none;fillColor=none;align=left;verticalAlign=top;spacingLeft=4;spacingRight=4;overflow=hidden;rotatable=0;points=[[0,0.5],[1,0.5]];portConstraint=eastwest;" vertex="1" parent="BN2WUZa2xBLd-5vFpixv-32">
          <mxGeometry y="26" width="160" height="84" as="geometry" />
        </mxCell>
        <mxCell id="BN2WUZa2xBLd-5vFpixv-34" value="" style="line;strokeWidth=1;fillColor=none;align=left;verticalAlign=middle;spacingTop=-1;spacingLeft=3;spacingRight=3;rotatable=0;labelPosition=right;points=[];portConstraint=eastwest;" vertex="1" parent="BN2WUZa2xBLd-5vFpixv-32">
          <mxGeometry y="110" width="160" height="18" as="geometry" />
        </mxCell>
        <mxCell id="BN2WUZa2xBLd-5vFpixv-35" value="Work(Type): Type" style="text;strokeColor=none;fillColor=none;align=left;verticalAlign=top;spacingLeft=4;spacingRight=4;overflow=hidden;rotatable=0;points=[[0,0.5],[1,0.5]];portConstraint=eastwest;" vertex="1" parent="BN2WUZa2xBLd-5vFpixv-32">
          <mxGeometry y="128" width="160" height="40" as="geometry" />
        </mxCell>
        <mxCell id="BN2WUZa2xBLd-5vFpixv-38" value="" style="endArrow=open;endFill=1;endSize=12;html=1;rounded=0;edgeStyle=orthogonalEdgeStyle;entryX=0.542;entryY=1.017;entryDx=0;entryDy=0;entryPerimeter=0;exitX=0.41;exitY=-0.002;exitDx=0;exitDy=0;exitPerimeter=0;" edge="1" parent="1" source="BN2WUZa2xBLd-5vFpixv-32">
          <mxGeometry width="160" relative="1" as="geometry">
            <mxPoint x="610" y="-795" as="sourcePoint" />
            <mxPoint x="609.83" y="-850" as="targetPoint" />
            <Array as="points">
              <mxPoint x="611" y="-833" />
              <mxPoint x="610" y="-833" />
            </Array>
          </mxGeometry>
        </mxCell>
        <mxCell id="BN2WUZa2xBLd-5vFpixv-39" value="" style="endArrow=open;endFill=1;endSize=12;html=1;rounded=0;edgeStyle=orthogonalEdgeStyle;entryX=0.542;entryY=1.017;entryDx=0;entryDy=0;entryPerimeter=0;exitX=0.554;exitY=0.004;exitDx=0;exitDy=0;exitPerimeter=0;" edge="1" parent="1" source="BN2WUZa2xBLd-5vFpixv-24">
          <mxGeometry width="160" relative="1" as="geometry">
            <mxPoint x="375" y="-810" as="sourcePoint" />
            <mxPoint x="555" y="-850" as="targetPoint" />
            <Array as="points">
              <mxPoint x="264" y="-810" />
              <mxPoint x="555" y="-810" />
            </Array>
          </mxGeometry>
        </mxCell>
        <mxCell id="BN2WUZa2xBLd-5vFpixv-40" value="" style="endArrow=open;endFill=1;endSize=12;html=1;rounded=0;edgeStyle=orthogonalEdgeStyle;entryX=0.542;entryY=1.017;entryDx=0;entryDy=0;entryPerimeter=0;" edge="1" parent="1" source="BN2WUZa2xBLd-5vFpixv-28">
          <mxGeometry width="160" relative="1" as="geometry">
            <mxPoint x="465" y="-795" as="sourcePoint" />
            <mxPoint x="585" y="-850" as="targetPoint" />
            <Array as="points">
              <mxPoint x="465" y="-800" />
              <mxPoint x="585" y="-800" />
            </Array>
          </mxGeometry>
        </mxCell>
        <mxCell id="BN2WUZa2xBLd-5vFpixv-42" value="&lt;span&gt;&lt;/span&gt;&lt;span&gt;&lt;/span&gt;&lt;span&gt;&lt;font style=&quot;font-size: 15px&quot;&gt;Процесс: продажа программного продукта&lt;/font&gt;&lt;/span&gt;" style="text;whiteSpace=wrap;html=1;" vertex="1" parent="1">
          <mxGeometry x="276.13" y="-1070" width="307.75" height="30" as="geometry" />
        </mxCell>
        <UserObject label="Диаграмма классов" link="https://nvie.com/posts/a-successful-git-branching-model/" id="BN2WUZa2xBLd-5vFpixv-43">
          <mxCell style="text;whiteSpace=wrap;html=1;fontStyle=1;fontSize=16;" vertex="1" parent="1">
            <mxGeometry x="350" y="-1130" width="180" height="20" as="geometry" />
          </mxCell>
        </UserObject>
        <mxCell id="BN2WUZa2xBLd-5vFpixv-44" value="" style="endArrow=open;endFill=1;endSize=12;html=1;rounded=0;edgeStyle=orthogonalEdgeStyle;" edge="1" parent="1" target="BN2WUZa2xBLd-5vFpixv-15">
          <mxGeometry width="160" relative="1" as="geometry">
            <mxPoint x="450" y="-930" as="sourcePoint" />
            <mxPoint x="490" y="-950" as="targetPoint" />
          </mxGeometry>
        </mxCell>
      </root>
    </mxGraphModel>
  </diagram>
</mxfile>
